<svg xmlns="http://www.w3.org/2000/svg" width="1200" height="320" viewBox="0 0 1200 320" font-family="ui-monospace, SFMono-Regular, Menlo, Consolas, monospace">
  <rect width="1200" height="320" rx="16" fill="#ffffff"/>
  <!-- faint grid -->
  <g stroke="#eaeef2" stroke-width="1" opacity="0.5">
    <line x1="0" y1="0" x2="0" y2="320"/><line x1="40" y1="0" x2="40" y2="320"/><line x1="80" y1="0" x2="80" y2="320"/><line x1="120" y1="0" x2="120" y2="320"/><line x1="160" y1="0" x2="160" y2="320"/><line x1="200" y1="0" x2="200" y2="320"/><line x1="240" y1="0" x2="240" y2="320"/><line x1="280" y1="0" x2="280" y2="320"/><line x1="320" y1="0" x2="320" y2="320"/><line x1="360" y1="0" x2="360" y2="320"/><line x1="400" y1="0" x2="400" y2="320"/><line x1="440" y1="0" x2="440" y2="320"/><line x1="480" y1="0" x2="480" y2="320"/><line x1="520" y1="0" x2="520" y2="320"/><line x1="560" y1="0" x2="560" y2="320"/><line x1="600" y1="0" x2="600" y2="320"/><line x1="640" y1="0" x2="640" y2="320"/><line x1="680" y1="0" x2="680" y2="320"/><line x1="720" y1="0" x2="720" y2="320"/><line x1="760" y1="0" x2="760" y2="320"/><line x1="800" y1="0" x2="800" y2="320"/><line x1="840" y1="0" x2="840" y2="320"/><line x1="880" y1="0" x2="880" y2="320"/><line x1="920" y1="0" x2="920" y2="320"/><line x1="960" y1="0" x2="960" y2="320"/><line x1="1000" y1="0" x2="1000" y2="320"/><line x1="1040" y1="0" x2="1040" y2="320"/><line x1="1080" y1="0" x2="1080" y2="320"/><line x1="1120" y1="0" x2="1120" y2="320"/><line x1="1160" y1="0" x2="1160" y2="320"/>
    <line x1="0" y1="0" x2="1200" y2="0"/><line x1="0" y1="40" x2="1200" y2="40"/><line x1="0" y1="80" x2="1200" y2="80"/><line x1="0" y1="120" x2="1200" y2="120"/><line x1="0" y1="160" x2="1200" y2="160"/><line x1="0" y1="200" x2="1200" y2="200"/><line x1="0" y1="240" x2="1200" y2="240"/><line x1="0" y1="280" x2="1200" y2="280"/>
  </g>
  <text x="60" y="92" font-size="44" font-weight="700" fill="#1f2328" font-family="-apple-system, 'Segoe UI', Helvetica, Arial, sans-serif">Nikhil Obuleni</text>
  <text x="60" y="126" font-size="18" fill="#57606a">AI research engineer · clinical and global-health LLM systems · Washington, DC</text>
  <text x="60" y="168" font-size="14" fill="#57606a">$ what I build, most days</text>

  <!-- pipeline -->
  <g font-size="15" text-anchor="middle">
    <rect x="60"  y="196" width="220" height="72" rx="10" fill="#f6f8fa" stroke="#0969da" stroke-width="1.5"/>
    <text x="170" y="226" fill="#1f2328" font-weight="700">retrieve</text>
    <text x="170" y="250" fill="#57606a" font-size="13">PubMed · FDA labels · WHO rubrics</text>

    <rect x="340" y="196" width="220" height="72" rx="10" fill="#f6f8fa" stroke="#0969da" stroke-width="1.5"/>
    <text x="450" y="226" fill="#1f2328" font-weight="700">ground</text>
    <text x="450" y="250" fill="#57606a" font-size="13">cite every sentence, or abstain</text>

    <rect x="620" y="196" width="220" height="72" rx="10" fill="#f6f8fa" stroke="#1a7f37" stroke-width="1.5"/>
    <text x="730" y="226" fill="#1f2328" font-weight="700">evaluate</text>
    <text x="730" y="250" fill="#57606a" font-size="13">faithfulness · recall · 14 languages</text>

    <rect x="900" y="196" width="240" height="72" rx="10" fill="#f6f8fa" stroke="#1a7f37" stroke-width="1.5"/>
    <text x="1020" y="226" fill="#1f2328" font-weight="700">decide</text>
    <text x="1020" y="250" fill="#57606a" font-size="13">experiments that survive peeking</text>

    <g stroke="#57606a" stroke-width="2" fill="none">
      <path d="M280 232 H332"/><path d="M326 226 L334 232 L326 238"/>
      <path d="M560 232 H612"/><path d="M606 226 L614 232 L606 238"/>
      <path d="M840 232 H892"/><path d="M886 226 L894 232 L886 238"/>
    </g>
  </g>
  <text x="60" y="300" font-size="12" fill="#57606a">medrag-toolkit → ragcheck → abtest-kit, with the models in between (PlanMoE, sepsis-prediction, skiavox, mindscope)</text>
</svg>